<svg width="878" height="899" viewBox="0 0 878 899" fill="none" xmlns="http://www.w3.org/2000/svg">
<path d="M439 0L454.02 384.192L634.248 44.564L481.086 397.226L790.824 169.43L499.815 420.713L877.718 349.866L506.5 450L877.718 550.134L499.815 479.287L790.824 730.57L481.086 502.774L634.248 855.436L454.02 515.808L439 900L423.98 515.808L243.752 855.436L396.914 502.774L87.1758 730.57L378.185 479.287L0.28244 550.134L371.5 450L0.28244 349.866L378.185 420.713L87.1758 169.43L396.914 397.226L243.752 44.564L423.98 384.192L439 0Z" fill="#0035F5"/>
</svg>
